# xmcd
#
# Track frame offsets:
#       183
#       9545
#       20683
#       31483
#       44583
#       58383
#       70133
#       83958
#       93670
#       106920
#       119020
#       132245
#
# Disc length: 1922 seconds
#
# Revision: 0
# Processed by: cddbd v1.5.2PL0 Copyright (c) Steve Scherf et al.
# Submitted via: WhereIsIt 2010.1026
#
DISCID=ad07800c
DTITLE=Dusty Springfield - A Girl Called Dusty
DYEAR=1900
DGENRE=
TTITLE0=Mama Said
TTITLE1=You Don't Own Me
TTITLE2=Do Re Mi
TTITLE3=When The Love Light Starts Shining Thru His Eyes
TTITLE4=My Colouring Book
TTITLE5=Mocking Bird
TTITLE6=Twenty-Four Hours From Tulsa
TTITLE7=Nothing
TTITLE8=Anyone Who Had A Heart
TTITLE9=Will You Love Me Tomorrow
TTITLE10=Wishin' And Hopin'
TTITLE11=Don't You Know
EXTD=
EXTT0=
EXTT1=
EXTT2=
EXTT3=
EXTT4=
EXTT5=
EXTT6=
EXTT7=
EXTT8=
EXTT9=
EXTT10=
EXTT11=
PLAYORDER=
